<?xml version="1.0" encoding="UTF-8"?>
<!DOCTYPE svg PUBLIC "-//W3C//DTD SVG 1.1//EN" "http://www.w3.org/Graphics/SVG/1.1/DTD/svg11.dtd">
<!-- Creator: CorelDRAW X7 -->
<svg xmlns="http://www.w3.org/2000/svg" xml:space="preserve" width="2.45151cm" height="3.11908cm" version="1.1" style="shape-rendering:geometricPrecision; text-rendering:geometricPrecision; image-rendering:optimizeQuality; fill-rule:evenodd; clip-rule:evenodd"
viewBox="0 0 369 470"
 xmlns:xlink="http://www.w3.org/1999/xlink">
 <defs>
  <style type="text/css">
   <![CDATA[
    .str1 {stroke:#201E1E;stroke-width:1.14784}
    .str3 {stroke:#CAA570;stroke-width:1.14784}
    .str0 {stroke:#201E1E;stroke-width:1.14784;stroke-linecap:round;stroke-linejoin:round}
    .str2 {stroke:#CAA570;stroke-width:1.14784;stroke-linecap:round;stroke-linejoin:round}
    .fil4 {fill:#FEFEFE}
    .fil1 {fill:#201E1E}
    .fil0 {fill:#201E1E}
    .fil5 {fill:#96006B}
    .fil7 {fill:#96006B}
    .fil2 {fill:#CAA570}
    .fil3 {fill:#CAA570}
    .fil6 {fill:#F48013}
    .fil9 {fill:#F48013}
    .fil8 {fill:#FF0084}
   ]]>
  </style>
 </defs>
 <g id="PowerClip_x0020_Contents">
  <metadata id="CorelCorpID_0Corel-Layer"/>
  <g id="_3122719679088">
   <g>
    <path class="fil0 str0" d="M182 392l0 26c0,18 -9,33 -25,41 -16,8 -34,6 -48,-4l-90 -69c-12,-9 -18,-22 -18,-36l0 -288c0,-17 9,-32 24,-40 16,-8 34,-7 48,4l91 67c5,3 9,8 12,14l99 -76c14,-11 32,-12 48,-5 16,8 25,23 25,41l0 140c0,14 -6,27 -17,36l-3 2 1 1c12,9 19,22 19,37l0 141c0,17 -9,32 -25,40 -15,8 -33,7 -47,-4l-94 -68z"/>
   </g>
   <path class="fil1 str1" d="M303 424l-143 -104 1 -144 142 -109 0 140 -50 40 0 0 50 36 0 141zm-257 -166l0 92 0 0 91 68 0 -230 0 -59 0 0 -91 -67 0 196z"/>
   <g>
    <g>
     <path class="fil2 str2" d="M203 376l0 26c0,18 -10,33 -25,41 -16,8 -34,6 -48,-4l-91 -69c-12,-9 -18,-22 -18,-36l0 -288c0,-17 9,-32 25,-40 16,-8 33,-7 47,4l91 66c6,4 10,9 13,14l99 -75c14,-11 32,-12 47,-5 16,8 26,23 26,41l0 140c0,14 -6,27 -17,35l-4 3 2 1c12,9 19,22 19,37l0 141c0,17 -9,32 -25,40 -16,8 -33,7 -47,-4l-94 -68z"/>
    </g>
    <g>
     <polygon class="fil3 str3" points="157,172 67,242 67,334 67,334 157,402 "/>
     <polygon class="fil3 str3" points="67,46 157,113 157,113 157,172 67,242 "/>
     <polygon class="fil3 str3" points="181,160 323,51 323,191 274,231 "/>
     <polygon class="fil3 str3" points="274,231 181,304 181,160 "/>
     <polygon class="fil3 str3" points="323,408 181,304 274,231 323,267 "/>
    </g>
    <g>
     <path class="fil4" d="M180 332l0 70c0,9 -5,17 -12,21 -8,4 -17,3 -24,-2l-91 -69c-6,-5 -9,-11 -9,-18l0 -288c0,-9 5,-16 12,-20 8,-4 17,-3 24,2l91 67c6,4 9,11 9,18l0 19 130 -99c7,-5 15,-6 23,-2 8,4 13,11 13,20l0 140c0,7 -3,13 -9,18l-26 21 26 18c6,5 9,11 9,19l0 141c0,8 -5,16 -12,20 -8,4 -17,3 -24,-2l-130 -94z"/>
    </g>
    <g>
     <polygon class="fil5" points="157,172 67,242 67,334 67,334 157,402 "/>
     <polygon class="fil6" points="67,46 157,113 157,113 157,172 67,242 "/>
     <polygon class="fil7" points="181,160 323,51 323,191 274,231 "/>
     <polygon class="fil8" points="274,231 181,304 181,160 "/>
     <polygon class="fil9" points="323,408 181,304 274,231 323,267 "/>
    </g>
   </g>
  </g>
 </g>
</svg>
