<?xml version="1.0" encoding="UTF-8"?>
<!DOCTYPE svg PUBLIC "-//W3C//DTD SVG 1.1//EN" "http://www.w3.org/Graphics/SVG/1.1/DTD/svg11.dtd">
<!-- Creator: CorelDRAW X7 -->
<svg xmlns="http://www.w3.org/2000/svg" xml:space="preserve" width="2.08176cm" height="2.48356cm" version="1.1" style="shape-rendering:geometricPrecision; text-rendering:geometricPrecision; image-rendering:optimizeQuality; fill-rule:evenodd; clip-rule:evenodd"
viewBox="0 0 2414 2880"
 xmlns:xlink="http://www.w3.org/1999/xlink">
 <defs>
  <style type="text/css">
   <![CDATA[
    .fil0 {fill:#F19935}
   ]]>
  </style>
 </defs>
 <g id="Layer_x0020_1">
  <metadata id="CorelCorpID_0Corel-Layer"/>
  <g id="_1884916976736">
   <path class="fil0" d="M412 1314c80,70 68,125 251,243 82,53 235,120 359,133 4,227 0,459 0,687 0,191 -55,505 185,503 242,-2 187,-311 187,-503 0,-227 -6,-461 1,-687 198,-45 351,-107 490,-246 41,-40 66,-95 108,-137 78,95 88,524 -124,789 -46,57 -130,117 -99,239 20,78 97,143 202,130 172,-20 365,-422 408,-614 177,-791 -432,-1475 -1163,-1476 -735,-2 -1359,668 -1187,1461 38,174 121,347 213,465 38,49 107,142 174,159 111,29 196,-36 223,-110 61,-167 -99,-188 -210,-453 -71,-172 -77,-397 -18,-583z"/>
   <path class="fil0" d="M1 878c31,-31 108,-156 207,-257 449,-459 1181,-557 1736,-208 206,129 332,269 466,468 8,-80 2,-170 3,-252 1,-124 -23,-112 -86,-177 -75,-75 -190,-162 -295,-226 -213,-131 -509,-225 -815,-226 -425,-1 -839,163 -1118,443 -29,29 -43,44 -64,64 -41,39 -35,31 -34,102 0,90 0,179 0,269z"/>
  </g>
 </g>
</svg>
