<?xml version="1.0" encoding="UTF-8"?>
<!DOCTYPE svg PUBLIC "-//W3C//DTD SVG 1.1//EN" "http://www.w3.org/Graphics/SVG/1.1/DTD/svg11.dtd">
<!-- Creator: CorelDRAW X7 -->
<svg xmlns="http://www.w3.org/2000/svg" xml:space="preserve" width="13.8658cm" height="16.3952cm" version="1.1" style="shape-rendering:geometricPrecision; text-rendering:geometricPrecision; image-rendering:optimizeQuality; fill-rule:evenodd; clip-rule:evenodd"
viewBox="0 0 13872 16403"
 xmlns:xlink="http://www.w3.org/1999/xlink">
 <defs>
  <style type="text/css">
   <![CDATA[
    .str0 {stroke:#F08519;stroke-width:20.0089}
    .str1 {stroke:#F08519;stroke-width:7.6234}
    .fil0 {fill:#F08519}
   ]]>
  </style>
 </defs>
 <g id="Layer_x0020_1">
  <metadata id="CorelCorpID_0Corel-Layer"/>
  <g id="_1943921386560">
   <path class="fil0 str0" d="M13862 14l-7777 2570 0 11335 7777 2470 0 -16375zm-3488 4574l0 8748 -755 0 0 -8748 -2003 0 0 -820 4761 0 0 820 -2003 0z"/>
   <path class="fil0 str1" d="M5053 11023c0,315 -58,611 -171,887 -116,276 -274,517 -474,724 -199,208 -434,369 -701,488 -267,120 -551,179 -856,179l-639 0c-303,0 -591,-59 -861,-179 -269,-119 -501,-280 -702,-488 -201,-207 -359,-448 -472,-724 -116,-276 -173,-572 -173,-887l0 -4982c0,-314 57,-609 173,-885 113,-276 271,-517 472,-725 201,-207 433,-371 702,-488 270,-119 558,-179 861,-179l639 0c305,0 589,60 856,179 267,117 502,281 701,488 200,208 358,449 474,725 113,276 171,571 171,885l0 4982zm-808 -4982c0,-205 -36,-400 -111,-578 -77,-179 -177,-336 -307,-469 -131,-134 -280,-240 -453,-318 -173,-77 -361,-114 -562,-114l-561 0c-201,0 -387,37 -560,114 -175,78 -327,184 -457,318 -132,133 -235,290 -310,469 -77,178 -113,373 -113,578l0 4982c0,207 36,399 113,580 75,179 178,336 310,471 130,136 282,242 457,320 173,79 359,117 560,117l561 0c201,0 389,-38 562,-117 173,-78 322,-184 453,-320 130,-135 230,-292 307,-471 75,-181 111,-373 111,-580l0 -4982z"/>
  </g>
 </g>
</svg>
